<svg id="Layer_1" data-name="Layer 1" xmlns="http://www.w3.org/2000/svg" viewBox="0 0 1413.44 265.73"><defs><style>.cls-1,.cls-2,.cls-3{fill:#fff;}.cls-1,.cls-2{stroke:#fff;}.cls-2{stroke-miterlimit:10;stroke-width:0.75px;}</style></defs><path class="cls-1" d="M1400.57,1132.08l-3.94,13.28h-92.08l2-11.6,20.62-10.62-9.72-33q-28.77,1.66-57.27,1.67h-6.44q-3.95,12.59-6.63,20.76t-3.49,10.55l22.73,11-2.1,11.18h-89.41l20.84-13,21.54-9.92L1275.38,952l39.68-4.9,64.23,176.09Zm-90.11-66.1-24-82q-1.45,9.36-24.43,82Z" transform="translate(-1173.06 -946.51)"/><path class="cls-1" d="M1397.55,1024.62l2.5-12h61.87v79.79q0,10.35.33,15.65a37.25,37.25,0,0,0,1.18,8.11A14.27,14.27,0,0,0,1466,1121a7.59,7.59,0,0,0,2.7,2.31,8.73,8.73,0,0,0,3.61.63q6.57,0,13.92-.7a73.14,73.14,0,0,0,12-2v-83l-15.9-13.28,2-12.43h59.12v104.95q4.45,9.78,22.85,14.67l-2.1,8.53a112,112,0,0,1-16.22,5.52,82.1,82.1,0,0,1-21.22,2.58,47.88,47.88,0,0,0-4.86-7.27,69,69,0,0,0-8.21-8.87,35.43,35.43,0,0,0-9.39-6.36,83.71,83.71,0,0,1-18.92,16.35,41,41,0,0,1-21.93,6.15q-22.21,0-34.42-11.39t-12.22-38.5v-60.65Z" transform="translate(-1173.06 -946.51)"/><path class="cls-1" d="M1574.63,1025.31l1-7,49.52-7.13,9.73,22.5q7-13.14,15.23-18.87a31.82,31.82,0,0,1,18.53-5.73q7.21,0,16.15,6.29a39.78,39.78,0,0,1,8.35,7.69c2.23,2.79,3.35,5.22,3.35,7.26,0,2.52-1.74,6-5.19,10.56a76.49,76.49,0,0,1-11.7,12.22q-6.5,5.46-9.91,5.45-3,0-7.56-2.86a28.62,28.62,0,0,1-7-5.94l-2.5-13.56a51.52,51.52,0,0,0-8,3.22,36.22,36.22,0,0,0-6.83,4v82.31l36.25,10.48-2,9.09h-98.65l2-10.2,17.21-10.76v-86.23Z" transform="translate(-1173.06 -946.51)"/><path class="cls-1" d="M1949.54,1028.6q-8,5.1-11.69,10.13a17.41,17.41,0,0,0-2,3.35,8.15,8.15,0,0,0-.59,3.22c0,1.58.87,3.17,2.62,4.75a37.88,37.88,0,0,0,8.94,5.31q5.25,2.52,15.37,6.57,11.29,4.75,17.2,7.4a92.93,92.93,0,0,1,10.64,5.59,42,42,0,0,1,12.81,12.16,29.16,29.16,0,0,1,4.93,16.77q0,16.5-9.59,26.55a52.78,52.78,0,0,1-24.24,14.26,112.07,112.07,0,0,1-30.93,4.19,125.56,125.56,0,0,1-26.34-2.58,83.19,83.19,0,0,1-23.06-8.74l7.49-38.85,15.9,3.22,7.35,30.18q8.42,0,20.36-3.63t17.48-8.25c2.18-1.67,3.28-3.35,3.28-5q0-2.24-2.5-3.91a45.06,45.06,0,0,0-8.27-3.91q-8.14-3.07-17.87-7.76a188.14,188.14,0,0,1-17.6-9.57,54.94,54.94,0,0,1-16.22-15q-6-8.6-6-22.29,0-14.67,8.6-24.45a51.24,51.24,0,0,1,22.07-14.47,85.61,85.61,0,0,1,28.31-4.68q21.94,0,34.16,5.73a65.61,65.61,0,0,1,10.9,6.71q5.39,4.05,5.38,7.55,0,4.76-4.79,11.53a72.38,72.38,0,0,1-10.71,12.08c-3.94,3.55-6.7,5.31-8.27,5.31-2.1,0-4.69-1.27-7.75-3.84a33,33,0,0,1-7-7.61l-4.34-24.88A58.87,58.87,0,0,0,1949.54,1028.6Z" transform="translate(-1173.06 -946.51)"/><path class="cls-1" d="M2074.6,1034.4a59,59,0,0,0-6.57,17.75,93.73,93.73,0,0,0-2.1,19.14,79.52,79.52,0,0,0,2.3,20.26,56.3,56.3,0,0,0,7.42,16.49q5.38,8.25,11.17,12.16a23.1,23.1,0,0,0,13.27,3.92,172.26,172.26,0,0,0,19.37-1.54q12.55-1.55,17.15-2.38l2.1,4.2a49.14,49.14,0,0,1-11.43,11.73,63.44,63.44,0,0,1-17.54,9.16,65.91,65.91,0,0,1-21.87,3.56q-20.23,0-35.07-8.1a54.51,54.51,0,0,1-22.8-23.69q-7.93-15.58-7.94-37.38,0-20.55,9.65-36.62a68.05,68.05,0,0,1,25.88-25,71.66,71.66,0,0,1,35.14-8.95,75.24,75.24,0,0,1,15.7,1.54,61.64,61.64,0,0,1,14.25,5,45.11,45.11,0,0,1,10.71,7.41q4.79,4.47,4.79,7,0,4.18-5.25,11a73.9,73.9,0,0,1-11.89,12.15q-6.63,5.38-9.52,5.38c-2.19,0-5-1.18-8.35-3.56a33.71,33.71,0,0,1-8.07-7.76L2090,1020.7Q2080.64,1023.78,2074.6,1034.4Z" transform="translate(-1173.06 -946.51)"/><path class="cls-1" d="M2157.56,1045.58a69.26,69.26,0,0,1,24.5-26.49,65.17,65.17,0,0,1,35.6-10q19,0,34.35,7.34a55.74,55.74,0,0,1,24.3,22.64q9,15.3,9,38.22a74.08,74.08,0,0,1-8.74,35.22,68.68,68.68,0,0,1-24.5,26.41,65.43,65.43,0,0,1-35.6,9.92q-19,0-34.35-7.34a55.85,55.85,0,0,1-24.3-22.56q-9-15.24-9-38.16A74,74,0,0,1,2157.56,1045.58ZM2233,1127.4a5.66,5.66,0,0,0,3.41-2.45q2-3.63,3.15-13.06a157.6,157.6,0,0,0,1.19-19.64q0-19-4.14-33.12t-11.69-21.8q-7.56-7.68-17.54-7.68a19.51,19.51,0,0,0-6.3.9,5.72,5.72,0,0,0-3.42,2.45q-2,3.49-3.15,12.93a158.65,158.65,0,0,0-1.19,19.77q0,19,4.14,33.12t11.63,21.8q7.49,7.7,17.47,7.69A19.78,19.78,0,0,0,2233,1127.4Z" transform="translate(-1173.06 -946.51)"/><path class="cls-1" d="M2395.13,1202.65l-1.84,9.09h-98.92l2-10.34,17.21-10.62V1038.17l-18-13,1.05-6.84,49.65-7.13,10.25,18.45a123.88,123.88,0,0,1,21.87-14.89,47.62,47.62,0,0,1,22.27-5.66,37.23,37.23,0,0,1,23.84,8q10.05,8,15.43,23t5.39,35.7a98,98,0,0,1-6.77,36.48q-6.76,17-18.71,26.69a45.43,45.43,0,0,1-13.08,7.34,44.39,44.39,0,0,1-15.17,2.58,50.2,50.2,0,0,1-18.85-3.56,31.43,31.43,0,0,1-14-10.55v57.43Zm-36.39-153.72v74.49a149.78,149.78,0,0,0,25.49,1.81,20.12,20.12,0,0,0,8.14-1.32q2.9-1.34,4.47-5.94,3.93-11.33,3.94-29.07a141.45,141.45,0,0,0-2.1-25.16,62,62,0,0,0-7.49-20.68,16.69,16.69,0,0,0-5-5.73,11.66,11.66,0,0,0-6.18-1.54,77.46,77.46,0,0,0-11.3,1.12,42.25,42.25,0,0,0-10.11,2.52Q2358.75,1042.51,2358.74,1048.93Z" transform="translate(-1173.06 -946.51)"/><path class="cls-1" d="M2560.25,1015.53a46.76,46.76,0,0,1,19.05,17.68,48.32,48.32,0,0,1,6.7,25.22q0,12-3.68,20a8.58,8.58,0,0,1-3.28,3.63,11.24,11.24,0,0,1-5.78,1.26h-68.05a69.67,69.67,0,0,0,6.64,19.84,48.56,48.56,0,0,0,11.49,15.1q6.7,5.73,14.06,5.73a182.8,182.8,0,0,0,20.69-1.61q13.2-1.61,18.06-2.59l2,4.62a55.37,55.37,0,0,1-23.06,18.16,75.9,75.9,0,0,1-30.8,6.29,67.65,67.65,0,0,1-30.94-7.41q-14.64-7.39-23.84-22.77t-9.19-38.16a73.34,73.34,0,0,1,8.73-35.07,68.38,68.38,0,0,1,25-26.35q16.23-10,37.5-10Q2547.9,1009.1,2560.25,1015.53ZM2548.17,1064a49.69,49.69,0,0,0-5.72-18.79,31.85,31.85,0,0,0-10.83-11.74,26.2,26.2,0,0,0-14.06-4,14.67,14.67,0,0,0-4.14.49,4.23,4.23,0,0,0-2.56,2.16q-6.43,10.48-6.57,38.57Z" transform="translate(-1173.06 -946.51)"/><path class="cls-1" d="M1421.81,1169.55" transform="translate(-1173.06 -946.51)"/><path class="cls-1" d="M1421.81,1169.55" transform="translate(-1173.06 -946.51)"/><path class="cls-2" d="M1855.53,1148.85l13.82-11.21,11.15-25.74-1.21-16.31-21-9.32c-4.71,12.56-18.06,40.86-23.46,53" transform="translate(-1173.06 -946.51)"/><path class="cls-3" d="M1756.71,1135.76a25.85,25.85,0,0,1-10.09-1.81,61.83,61.83,0,0,1-34.12-34.31c-5.61-14.12-5.45-29.17.43-42.37a59.07,59.07,0,0,1,28.3-28.61,30.48,30.48,0,0,0-2.49,2.08,26.8,26.8,0,0,0-5.24,6.43,15.1,15.1,0,0,0-2,10.82c.74,3.51,2.66,7.35,6.21,12.41a116,116,0,0,0,9.83,12.12,89.37,89.37,0,0,0,21,17.23c7.74,4.38,15.3,6.64,22.47,6.7h.33a30.25,30.25,0,0,0,20.9-8.1,27,27,0,0,0,5.31-6.51,15,15,0,0,0,1.92-10.93c-.78-3.5-2.71-7.32-6.25-12.37a115.25,115.25,0,0,0-9.76-12,88.86,88.86,0,0,0-21-17.22c-7.06-4-14-6.22-20.63-6.61a61.38,61.38,0,0,1,6.93-.39,60.29,60.29,0,0,1,24.74,5.27c5.8,2.59,16.19,20.78,22.4,31.65,6.43,11.27,11.28,19.55,16.07,25.1l-16.08,36c-7.52.45-15.88,3.5-25.45,7C1779.58,1131.26,1767.22,1135.76,1756.71,1135.76Z" transform="translate(-1173.06 -946.51)"/><path class="cls-3" d="M1724.16,1059.31a67.27,67.27,0,0,0,4.6,7.41,127.15,127.15,0,0,0,10.76,13.27,100,100,0,0,0,23.68,19.33c9.38,5.31,18.73,8,27.78,8.13h.45a41.35,41.35,0,0,0,20.58-5.32l-3.62,8.11c-7,1.38-14.19,4-21.66,6.72-10,3.66-21.45,7.8-30,7.8a15.35,15.35,0,0,1-5.85-1,50.93,50.93,0,0,1-28.14-28.22c-4.5-11.35-4.41-23.36.26-33.83.37-.83.76-1.64,1.18-2.44m44.66-48c-28.09,0-54.69,16.32-65.93,41.52-15.14,33.94,2.15,75.75,39.5,91.32a37,37,0,0,0,14.32,2.65c22.26,0,47.33-15.5,61.12-15.5a11.87,11.87,0,0,1,4.88.9l22.67-50.83c-12.06-5.39-30.56-56.35-47.35-63.84a71.51,71.51,0,0,0-29.21-6.22Zm22.61,74.18h-.23q-8-.08-17.16-5.27a78,78,0,0,1-18.38-15.13,105.21,105.21,0,0,1-8.89-11q-3.88-5.55-4.46-8.41a4.34,4.34,0,0,1,.76-3.08,16.18,16.18,0,0,1,3.14-3.79,19.26,19.26,0,0,1,13.57-5.21h.12q8,0,17.19,5.24a77.78,77.78,0,0,1,18.38,15.13,103.93,103.93,0,0,1,8.83,10.88q3.89,5.55,4.52,8.49a4.36,4.36,0,0,1-.75,3.07,17,17,0,0,1-3.22,3.87,19.08,19.08,0,0,1-13.42,5.17Z" transform="translate(-1173.06 -946.51)"/></svg>